<?xml version="1.0" encoding="utf-8"?>
<!-- Generator: Adobe Illustrator 19.2.0, SVG Export Plug-In . SVG Version: 6.00 Build 0)  -->
<svg version="1.1" id="Isolation_Mode" xmlns="http://www.w3.org/2000/svg" xmlns:xlink="http://www.w3.org/1999/xlink" x="0px"
	 y="0px" viewBox="0 0 11.5 16.9" style="enable-background:new 0 0 11.5 16.9;" xml:space="preserve">
<style type="text/css">
	.st0{fill:#626C76;}
</style>
<path class="st0" d="M5.6,5.4c1.5,0,2.6-1.2,2.6-2.7S7,0,5.6,0C4.1,0,3,1.2,3,2.7C3,4.3,4.2,5.4,5.6,5.4"/>
<path class="st0" d="M3.6,13.9l1.1-1.1v-0.1c-0.1-0.3-0.3-0.5-0.5-0.7c-0.3-0.3-0.7-0.5-1-0.6H3.1l-1.7,1.8
	c-0.3,0.3-0.4,0.7-0.2,1.1c0.1,0.1,0.1,0.3,0.2,0.4l1.9,1.9c0.2,0.2,0.5,0.3,0.7,0.3c0.3,0,0.5-0.1,0.7-0.3c0.4-0.4,0.4-1.1,0-1.5
	L3.6,13.9z"/>
<path class="st0" d="M8.1,11.4L8.1,11.4c-0.4,0-0.8,0.2-1.1,0.6c-0.2,0.2-0.4,0.5-0.5,0.7v0.1l1.1,1.1l-1.1,1.2
	c-0.4,0.4-0.4,1.1,0,1.5c0.2,0.2,0.5,0.3,0.7,0.3l0,0c0.3,0,0.5-0.1,0.7-0.3l1.9-1.9c0.1-0.1,0.2-0.2,0.2-0.4
	c0.2-0.4,0.1-0.8-0.2-1.1L8.1,11.4z"/>
<path class="st0" d="M11.2,9.7L9.5,8l-2-2l0,0l0,0c0,0-0.1,0-0.1-0.1H7.3c-0.4,0.3-1,0.5-1.6,0.5S4.6,6.2,4.1,5.9H4c0,0,0,0-0.1,0
	l0,0l0,0l0,0l0,0l-2,2c-0.1,0-1.7,1.7-1.7,1.7c-0.3,0.3-0.3,0.8,0,1.2c0.3,0.3,0.8,0.3,1.1,0c0,0,1.6-1.6,1.6-1.7l0.3-0.4
	c0,0.7,0.3,2,0.3,2c0.6,0.2,1.4,0.5,2.3,0.5c0.8,0,1.5-0.2,2.1-0.5c0,0,0.3-1.3,0.3-2L8.5,9l1.7,1.7c0.3,0.3,0.8,0.3,1.1,0
	C11.5,10.5,11.5,10,11.2,9.7"/>
</svg>
